<svg xmlns="http://www.w3.org/2000/svg" xmlns:xlink="http://www.w3.org/1999/xlink" version="1.1" xml:space="preserve" width="26" height="16"><rect id="backgroundrect" width="100%" height="100%" x="0" y="0" fill="none" stroke="none"/>
<style type="text/css">
	.st0{fill:#FFFFFF;}
</style>


<g class="currentLayer"><title>Layer 1</title><path class="st0" d="M23.296570968627933,6.72000427246094 h-0.5 v-0.1 v-0.4 c0,-0.7000000000000001 0,-1.4 0,-2 c0,-0.1 -0.1,-0.30000000000000004 -0.2,-0.30000000000000004 c-0.6000000000000001,0 -1.2,0 -1.9,0 v2.4 v0.5 h-2.8 c0,0.2 0,0.4 0,0.5 c0,0.5 0,1 0.1,1.5 c0.5,0 1,0 1.5,0.1 c0.4,0 0.8,0 1.3,0 v2.8 h2 v-2.8 h2.8 v-1.6 v-0.5 H23.296570968627933 z" id="svg_1"/><path class="st0" d="M15.296570968627933,6.5200042724609375 c-1.8,0 -3.5,0 -5.3,0 c-0.5,0 -1,0 -1.5,0 c-0.1,0 -0.30000000000000004,0.1 -0.30000000000000004,0.2 c0,1 0,2 0,3.1 h4.3 c-0.1,0.2 -0.1,0.4 -0.1,0.5 c-0.7000000000000001,2 -2.7,2.9 -4.9,2.6 c-2.7,-0.4 -4.4,-3 -3.9,-5.7 c0.1,-0.4 0.2,-0.7000000000000001 0.30000000000000004,-1.1 c0.9,-2 3.1,-3.2 5.3,-2.7 c0.8,0.2 1.5,0.6000000000000001 2,1.1 c0.8,-0.8 1.6,-1.6 2.4,-2.4 c-0.1,0 -0.1,-0.1 -0.2,-0.2 c-1.9,-1.6 -4.1,-2.2 -6.6,-1.8 c-3.5,0.6000000000000001 -6.1,3.4 -6.7,6.6 c-0.2,1.4 -0.1,2.9 0.4,4.3 c1.3,3.5 4.8,5.6 8.5,5.2 c1.8,-0.2 3.4,-0.9 4.7,-2.2 c1.9,-2 2.3,-4.4 2.1,-7 C15.896570968627927,6.620004272460939 15.696570968627931,6.5200042724609375 15.296570968627933,6.5200042724609375 " id="svg_2"/></g></svg>