<svg xmlns="http://www.w3.org/2000/svg" xmlns:xlink="http://www.w3.org/1999/xlink" version="1.1" xml:space="preserve" width="20" height="16"><rect id="backgroundrect" width="100%" height="100%" x="0" y="0" fill="none" stroke="none"/>
<style type="text/css">
	.st0{fill:#FFFFFF;}
</style>

<g class="currentLayer"><title>Layer 1</title><path class="st0" d="M20.20000114440918,1.8999992370605483 c-0.7000000000000001,0.30000000000000004 -1.5,0.5 -2.4,0.6000000000000001 c0.9,-0.5 1.5,-1.3 1.8,-2.2 c-0.8,0.5 -1.7000000000000002,0.8 -2.6,1 c-0.8,-0.8 -1.8,-1.3 -3,-1.3 c-2.3,0 -4.1,1.8 -4.1,4 c0,0.30000000000000004 0,0.6000000000000001 0.1,0.9 c-3.4,-0.2 -6.5,-1.8 -8.5,-4.2 c-0.4,0.6000000000000001 -0.6000000000000001,1.3 -0.6000000000000001,2 c0,1.4 0.7000000000000001,2.6 1.8,3.4 c-0.7000000000000001,0 -1.3,-0.2 -1.9,-0.5 v0.1 c0,0.5 0.1,1 0.30000000000000004,1.5 c0.5,1.3 1.6,2.2 3,2.5 c-0.30000000000000004,0.1 -0.7000000000000001,0.1 -1.1,0.1 c-0.30000000000000004,0 -0.5,0 -0.8,-0.1 c0.5,1.6 2.1,2.8 3.9,2.8 c-1.4,1.1 -3.2,1.7000000000000002 -5.1,1.7000000000000002 c-0.30000000000000004,0 -0.7000000000000001,0 -1,-0.1 c1.8,1.1 4,1.8 6.4,1.8 c6.5,0 10.5,-4.5 11.5,-9.1 c0.2,-0.8 0.30000000000000004,-1.6 0.30000000000000004,-2.4 c0,-0.2 0,-0.4 0,-0.5 C19.000001144409183,3.3999992370605483 19.70000114440918,2.6999992370605455 20.20000114440918,1.8999992370605483 " id="svg_1"/></g></svg>